<svg width="51" height="91" viewBox="0 0 51 91" fill="none" xmlns="http://www.w3.org/2000/svg">
<g filter="url(#filter0_i_273_71)">
<path d="M13.3418 39.2023C12.676 39.2023 11.9836 39.2023 11.2645 39.2023C9.3737 39.2023 8.01549 39.2022 7.24318 39.149C8.20191 32.2248 9.05412 26.6588 9.7998 22.4244C10.5455 18.19 11.9836 11.1859 14.0608 1.41211C13.2619 1.5719 12.3564 1.65179 11.3444 1.65179C10.3324 1.65179 9.3737 1.5719 8.54812 1.41211C7.50949 8.89557 6.47086 15.66 5.4056 21.7053C4.44686 27.1115 3.14192 33.8759 1.4375 41.9453C3.80771 41.8388 6.39097 41.7589 9.16065 41.7589L16.1381 41.8388C14.993 41.0398 14.0608 40.161 13.3951 39.1756L13.3418 39.2023ZM22.8226 37.7109C22.5829 37.6044 22.3699 37.4978 22.1568 37.3913C19.9997 37.7642 17.23 37.9772 13.9543 38.0571C14.1674 38.4566 14.4337 38.8028 14.7533 39.1756C15.6321 40.1876 16.8305 41.0931 18.3485 41.892C18.6681 42.0518 18.9877 42.2116 19.3073 42.3714L20.8253 43.0638H23.8613C23.8613 43.0905 23.9944 42.1317 23.9944 42.1317C24.1009 41.3328 24.1808 40.7202 24.2341 40.2941C24.4205 39.362 24.527 38.856 24.6069 38.6164L22.796 37.7375L22.8226 37.7109Z" fill="#2AC3C1"/>
<path d="M13.3418 39.2023C12.676 39.2023 11.9836 39.2023 11.2645 39.2023C9.37369 39.2023 8.01549 39.2023 7.24318 39.149C8.20191 32.2248 9.05412 26.6588 9.7998 22.4244C10.5455 18.19 11.9836 11.1859 14.0608 1.41211C13.2619 1.5719 12.3564 1.65179 11.3444 1.65179C10.3324 1.65179 9.3737 1.5719 8.54812 1.41211C7.50949 8.89557 6.47086 15.66 5.4056 21.7053C4.44686 27.1115 3.14192 33.8759 1.4375 41.9453C3.80771 41.8388 6.39096 41.7589 9.16064 41.7589L16.1381 41.8388C14.993 41.0398 14.0608 40.161 13.3951 39.1756L13.3418 39.2023ZM14.7533 39.149C15.6321 40.161 16.8305 41.0665 18.3485 41.8654L22.8759 41.9187C23.009 41.0931 23.0623 40.4806 23.1156 40.0811C23.2754 39.2555 23.4085 38.643 23.5417 38.2435C21.3046 38.7229 18.3752 39.0425 14.7533 39.149Z" fill="#2AC3C1"/>
<path d="M18.0827 30.467C18.0029 30.973 17.9496 31.4523 17.9496 31.9051C17.9496 34.1155 19.3344 35.9264 22.1307 37.3912C22.3438 37.4977 22.5835 37.6042 22.7965 37.7107L24.6075 38.563L27.1907 39.788C31.3453 41.7321 33.4225 44.3953 33.4225 47.8041C33.4225 51.2129 33.4225 48.1769 33.4225 48.3634C33.4225 48.7362 33.3693 49.109 33.3426 49.4819C33.3426 49.6949 33.2894 49.908 33.2627 50.121C32.5969 53.956 30.7594 57.0452 27.7766 59.4154C27.2973 59.7883 26.7913 60.1345 26.2853 60.4541C25.8858 60.7204 25.4597 60.9334 25.0336 61.1465C22.6367 62.3449 19.947 62.9308 16.911 62.9308C13.875 62.9308 9.80034 61.8922 7.4834 59.7883C8.54866 57.6844 9.34761 55.6071 9.90687 53.5032C10.3862 55.7669 11.3716 57.498 12.863 58.723C14.3543 59.9481 16.2185 60.5606 18.429 60.5606C20.6394 60.5606 23.1427 59.7883 24.9803 58.217C25.1934 58.0306 25.3798 57.8708 25.5662 57.6578C26.0988 57.1251 26.5782 56.5126 26.9777 55.8468C27.6701 54.7017 28.1761 53.3435 28.4424 51.8255C28.5223 51.2396 28.5489 50.6803 28.5489 50.1743C28.5489 49.6683 28.5489 49.5884 28.469 49.3221C28.3891 48.9226 28.2826 48.5498 28.1228 48.1769C27.457 46.6589 25.9923 45.4073 23.7286 44.3686L20.7992 43.0371L19.2812 42.3446C18.935 42.1848 18.6154 42.0251 18.3224 41.8653C16.8044 41.0663 15.606 40.1608 14.7272 39.1488C14.4342 38.8026 14.1679 38.4298 13.9282 38.0303C13.2624 36.9384 12.9429 35.7134 12.9429 34.3818C12.9429 33.0502 12.9961 33.0769 13.1293 32.3578C13.7152 29.0022 15.3663 26.2326 18.0827 24.102C20.7992 21.9715 23.9949 20.9062 27.6701 20.9062C31.3452 20.9062 33.7155 21.6519 36.3254 23.09C35.4998 24.3151 34.6742 25.8331 33.8486 27.6707C32.304 24.6347 29.8539 23.09 26.4983 23.09C23.1427 23.09 22.4237 23.7558 20.9323 25.0874C19.4143 26.419 18.4822 28.2033 18.0827 30.4403V30.467Z" fill="#2AC3C1"/>
<path d="M20.9323 25.1147C22.4237 23.7832 24.2879 23.1174 26.4983 23.1174C29.8539 23.1174 32.304 24.6354 33.8486 27.698C34.6742 25.8871 35.4998 24.3424 36.3254 23.1174C33.7155 21.6526 30.8393 20.9336 27.6701 20.9336C24.5009 20.9336 20.7992 21.9989 18.0827 24.1294C15.3663 26.2599 13.7152 29.0296 13.1293 32.3852C13.0228 33.1042 12.9429 33.77 12.9429 34.4092C12.9429 35.7407 13.2624 36.9658 13.9282 38.0577C14.1413 38.4571 14.4076 38.8034 14.7272 39.1762C15.606 40.1882 16.8044 41.0937 18.3224 41.8926C18.642 42.0524 18.9616 42.2122 19.2812 42.372L20.7992 43.0644L23.7286 44.396C25.9923 45.4346 27.457 46.6863 28.1228 48.2043C28.2826 48.5771 28.3891 48.95 28.469 49.3494C28.5223 49.6158 28.5489 49.9087 28.5489 50.2016C28.5489 50.7076 28.4957 51.2669 28.4424 51.8528C28.1761 53.3708 27.6967 54.7024 26.9777 55.8742C26.5782 56.54 26.0988 57.1258 25.5662 57.6851C25.0336 58.2444 25.1667 58.0579 24.9803 58.2444C23.1427 59.789 20.959 60.5879 18.429 60.5879C15.899 60.5879 14.3543 59.9754 12.863 58.7504C11.3716 57.5253 10.3596 55.7943 9.90687 53.5306C9.34761 55.6345 8.54866 57.7117 7.4834 59.8156C9.82697 61.9195 12.9695 62.9582 16.911 62.9582C20.8524 62.9582 22.6634 62.3723 25.0336 61.1738C25.4597 60.9608 25.8858 60.7211 26.2853 60.4814C26.7913 60.1618 27.2973 59.8156 27.7766 59.4428C30.7594 57.0992 32.5969 53.9833 33.2627 50.1484C33.2894 49.9353 33.316 49.7223 33.3426 49.5092C33.3959 49.1098 33.4225 48.7369 33.4225 48.3907C33.4225 48.2043 33.4225 48.0179 33.4225 47.8314C33.4225 44.4226 31.3453 41.7594 27.1907 39.8153L24.6075 38.5903L22.7965 37.7381C22.5568 37.6316 22.3438 37.525 22.1307 37.4185C19.3344 35.9804 17.9496 34.1428 17.9496 31.9324C17.9496 29.722 17.9762 31.0269 18.0827 30.4943C18.4822 28.2306 19.4143 26.4463 20.9323 25.1414V25.1147Z" fill="#2AC3C1"/>
<path d="M26.2859 60.4263C25.8864 60.6926 25.4603 60.9056 25.0342 61.1187C25.2206 59.9203 25.407 58.7751 25.5934 57.6566C26.1261 57.124 26.6054 56.5114 27.0049 55.8457C27.6973 54.7005 28.2033 53.3423 28.4696 51.8243C28.5495 51.2384 28.5762 50.6791 28.5762 50.1731C28.5762 49.6671 28.5762 49.5872 28.4963 49.3209C28.4164 48.9215 28.3099 48.5486 28.1501 48.1758C29.8012 48.2557 31.5855 48.3089 33.4231 48.3356C33.4231 48.7084 33.3699 49.0813 33.3432 49.4541C33.3432 49.6671 33.29 49.8802 33.2633 50.0932C32.5975 53.9282 30.76 57.0174 27.7772 59.3877C27.2979 59.7605 26.7919 60.1067 26.2859 60.4263Z" fill="#2AC3C1"/>
<path d="M31.1321 67.0313C34.754 67.0313 39.0949 66.8982 44.1017 66.6319C43.7555 67.8569 43.5424 69.0287 43.5158 70.1206C41.8114 69.7744 38.1096 69.588 32.4104 69.588H29.6408L29.0815 72.4375C28.8152 74.1952 27.9896 79.0422 26.6314 87.0316H28.1228C31.718 87.0316 36.5117 86.8186 42.4772 86.3658L41.8913 89.8013H20.7725C21.9176 84.9277 23.2758 78.0302 24.8737 69.1086C25.3265 66.552 25.7259 64.1285 26.0988 61.8648C26.951 61.4121 27.7499 60.8794 28.5222 60.2669C29.987 59.1218 31.1854 57.7902 32.1441 56.2988C31.5849 59.3615 31.0789 62.1578 30.6261 64.6878L30.0935 67.058H31.1588L31.1321 67.0313Z" fill="#2AC3C1"/>
<path d="M48.7363 49.2962L48.1504 52.7316C43.7029 52.3322 39.069 52.1457 34.2754 52.1457H33.9824C34.1422 51.5598 34.302 50.9207 34.4085 50.2815C34.4352 49.9886 34.4884 49.7223 34.5151 49.456C34.7281 49.456 34.9412 49.456 35.1808 49.456C37.8174 49.456 42.3447 49.4027 48.7629 49.2695L48.7363 49.2962Z" fill="#2AC3C1"/>
<path d="M35.1538 49.4801C34.9407 49.4801 34.701 49.4801 34.488 49.4801C34.488 49.7464 34.4347 50.0127 34.3814 50.279C34.2749 50.9448 34.1151 51.5574 33.9553 52.1699H34.2483C39.0686 52.1699 43.6758 52.3563 48.1233 52.7558L48.7092 49.3203C42.291 49.4535 37.7636 49.5067 35.1271 49.5067L35.1538 49.4801ZM30.0671 67.0569L30.5998 64.6867C31.0259 62.1567 31.5319 59.3604 32.1178 56.2978C31.159 57.7891 29.9606 59.1207 28.4959 60.2659C27.7236 60.8784 26.9246 61.411 26.0724 61.8638C25.6996 64.1274 25.3001 66.5509 24.8473 69.1075C23.2761 78.0557 21.8912 84.9533 20.7461 89.8002H41.8649L42.4508 86.3648C36.4853 86.7909 31.6917 87.0306 28.0964 87.0306H26.605C27.9632 79.0677 28.7888 74.1942 29.0551 72.4365L29.6144 69.5869H32.3841C38.0832 69.5869 41.8116 69.7467 43.4894 70.1195C43.5427 69.001 43.7291 67.8559 44.0753 66.6308C39.0686 66.8971 34.7276 67.0303 31.1058 67.0303H30.0405L30.0671 67.0569ZM33.2629 50.1193C33.2895 49.9062 33.3162 49.6932 33.3428 49.4801C31.665 49.4801 30.0405 49.4268 28.4959 49.3469C28.5491 49.6133 28.5758 49.9062 28.5758 50.1991C28.5758 50.7051 28.5225 51.2644 28.4692 51.8503C28.2029 53.3683 27.7236 54.6999 27.0045 55.8717C26.7915 57.3098 26.5518 58.8544 26.2855 60.4523C26.7915 60.1327 27.2974 59.7865 27.7768 59.4137C30.7595 57.0701 32.5971 53.9542 33.2629 50.1193Z" fill="#2AC3C1"/>
</g>
<defs>
<filter id="filter0_i_273_71" x="1.4375" y="1.41211" width="47.3252" height="88.7076" filterUnits="userSpaceOnUse" color-interpolation-filters="sRGB">
<feFlood flood-opacity="0" result="BackgroundImageFix"/>
<feBlend mode="normal" in="SourceGraphic" in2="BackgroundImageFix" result="shape"/>
<feColorMatrix in="SourceAlpha" type="matrix" values="0 0 0 0 0 0 0 0 0 0 0 0 0 0 0 0 0 0 127 0" result="hardAlpha"/>
<feOffset dy="0.3189"/>
<feGaussianBlur stdDeviation="0.15945"/>
<feComposite in2="hardAlpha" operator="arithmetic" k2="-1" k3="1"/>
<feColorMatrix type="matrix" values="0 0 0 0 0 0 0 0 0 0 0 0 0 0 0 0 0 0 0.25 0"/>
<feBlend mode="normal" in2="shape" result="effect1_innerShadow_273_71"/>
</filter>
</defs>
</svg>
