<svg width="260" height="40" viewBox="0 0 260 40" fill="none" xmlns="http://www.w3.org/2000/svg">
<path d="M128.37 29.7832C128.842 27.589 129.498 24.0926 130.339 19.294C131.2 14.3723 131.774 10.8657 132.061 8.77399C132.964 8.815 133.733 8.83551 134.368 8.83551C134.779 8.83551 135.65 8.815 136.983 8.77399C138.316 8.71247 139.444 8.68171 140.367 8.68171C143.463 8.68171 145.657 9.17387 146.949 10.1582C148.733 11.5116 149.625 13.5418 149.625 16.2487C149.625 17.0075 149.554 17.8072 149.41 18.648C148.754 22.2777 147.226 25.0564 144.827 26.984C142.448 28.8912 139.27 29.8447 135.291 29.8447C134.82 29.8447 134.081 29.8242 133.076 29.7832C132.092 29.7422 131.344 29.7217 130.831 29.7217C130.872 29.7217 130.052 29.7422 128.37 29.7832ZM131.354 28.4605C132.646 28.563 133.712 28.6143 134.553 28.6143C141.279 28.6143 145.196 25.487 146.303 19.2325C146.508 18.0636 146.611 17.028 146.611 16.1257C146.611 13.952 146.016 12.3729 144.827 11.3886C143.637 10.4043 141.782 9.91212 139.259 9.91212C137.598 9.91212 136.04 9.96339 134.584 10.0659C133.271 16.6281 132.195 22.7596 131.354 28.4605ZM151.598 8.77399C152.008 8.85602 152.459 8.89703 152.951 8.89703C153.505 8.89703 153.987 8.84576 154.397 8.74323L152.305 19.9399C152.039 21.519 151.905 22.7494 151.905 23.6312C151.905 24.8616 152.162 25.8767 152.674 26.6764C153.577 28.0709 155.135 28.7681 157.35 28.7681C159.585 28.7681 161.4 28.0504 162.795 26.6149C163.594 25.7946 164.22 24.6668 164.671 23.2313C164.999 22.2675 165.358 20.6577 165.748 18.4019C166.363 14.9363 166.886 11.727 167.316 8.77399C167.603 8.85602 167.921 8.89703 168.27 8.89703C168.639 8.89703 168.977 8.85602 169.285 8.77399C168.731 11.4194 168.352 13.2855 168.147 14.3723L168.024 15.1721C167.429 18.5147 166.957 20.832 166.609 22.1239C166.096 24.0721 165.481 25.5383 164.763 26.5226C162.918 28.9629 160.2 30.1831 156.612 30.1831C154.048 30.1831 152.162 29.6704 150.952 28.6451C149.762 27.6197 149.168 26.0305 149.168 23.8772C149.168 22.9955 149.27 22.0111 149.475 20.9243C149.988 18.2379 150.696 14.1878 151.598 8.77399ZM183.469 28.4605C181.705 29.6089 179.306 30.1831 176.271 30.1831C173.359 30.1831 171.124 29.4756 169.565 28.0606C168.007 26.6457 167.228 24.636 167.228 22.0316C167.228 21.1703 167.31 20.2578 167.474 19.294C168.048 15.9924 169.535 13.347 171.934 11.3578C174.354 9.36869 177.317 8.37411 180.824 8.37411C183.264 8.37411 185.376 8.86627 187.16 9.8506C186.648 10.8964 186.309 11.8808 186.145 12.8036C185.12 10.6093 183.243 9.51224 180.516 9.51224C177.953 9.51224 175.8 10.3735 174.056 12.0961C172.334 13.7982 171.196 16.2077 170.642 19.3247C170.478 20.2681 170.396 21.1601 170.396 22.0009C170.396 24.2156 170.96 25.9382 172.088 27.1686C173.216 28.399 174.805 29.0142 176.856 29.0142C179.214 29.0142 181.603 28.1529 184.023 26.4303L183.469 28.4605ZM180.612 29.7524C185.636 21.8163 190.055 14.6902 193.87 8.37411H194.454C196.054 15.5515 197.776 22.6879 199.622 29.7832C199.089 29.6807 198.597 29.6294 198.145 29.6294C197.674 29.6294 197.141 29.6807 196.546 29.7832C196.197 27.4659 195.736 25.1384 195.162 22.8006L194.854 21.5702C194.013 21.5292 192.752 21.5087 191.071 21.5087C189.368 21.5087 188.097 21.5292 187.256 21.5702C185.903 23.7645 184.365 26.5021 182.642 29.7832C182.314 29.6807 181.986 29.6294 181.658 29.6294C181.432 29.6294 181.084 29.6704 180.612 29.7524ZM187.995 20.2168C188.118 20.2168 188.435 20.2168 188.948 20.2168C189.461 20.2373 189.922 20.2475 190.332 20.2475C190.64 20.2475 191.255 20.2373 192.178 20.2168C193.101 20.2168 193.859 20.2168 194.454 20.2168L194.177 18.8633C194.034 18.1661 193.521 16.0744 192.639 12.5883L187.995 20.2168ZM202.025 29.7832C203.112 24.1438 204.004 19.335 204.701 15.3567L205.624 10.2197H204.793C202.332 10.2197 200.425 10.3428 199.072 10.5888C199.236 10.0147 199.338 9.4097 199.379 8.77399C201.717 8.83551 204.168 8.86627 206.731 8.86627C209.315 8.86627 212.042 8.83551 214.913 8.77399C214.688 9.34818 214.585 9.95313 214.606 10.5888C213.273 10.3428 211.478 10.2197 209.223 10.2197H208.331C207.921 11.9218 207.459 14.2185 206.946 17.11C206.29 20.8422 205.603 25.0666 204.886 29.7832C204.598 29.7422 204.137 29.7217 203.501 29.7217C202.866 29.7217 202.373 29.7422 202.025 29.7832ZM210.887 29.7832C211.339 27.8556 211.862 25.2102 212.456 21.8471L212.918 19.294C213.369 16.7101 213.922 13.2035 214.579 8.77399C214.989 8.85602 215.45 8.89703 215.963 8.89703C216.476 8.89703 216.957 8.85602 217.409 8.77399C217.081 10.1274 216.681 12.1371 216.209 14.803L215.409 19.294C215.081 21.0371 214.753 22.7801 214.425 24.5232C214.056 26.5739 213.82 28.3272 213.717 29.7832C213.225 29.6807 212.774 29.6294 212.364 29.6294C211.933 29.6294 211.441 29.6807 210.887 29.7832ZM225.256 30.2138C222.201 30.2138 219.832 29.4653 218.151 27.9684C216.469 26.4714 215.628 24.4002 215.628 21.7548C215.628 20.9755 215.7 20.1655 215.844 19.3247C216.418 16.0026 217.915 13.3573 220.335 11.3886C222.754 9.39945 225.687 8.40487 229.132 8.40487C232.167 8.40487 234.525 9.16362 236.207 10.6811C237.888 12.1781 238.729 14.2596 238.729 16.9254C238.729 17.6842 238.657 18.484 238.514 19.3247C237.94 22.5853 236.443 25.2204 234.023 27.2301C231.603 29.2193 228.681 30.2138 225.256 30.2138ZM225.471 29.045C228.117 29.045 230.301 28.2042 232.023 26.5226C233.766 24.8411 234.915 22.4315 235.469 19.294C235.653 18.2481 235.745 17.2741 235.745 16.3718C235.745 11.8193 233.469 9.543 228.917 9.543C226.271 9.543 224.077 10.4043 222.334 12.1269C220.611 13.8289 219.463 16.259 218.889 19.417C218.725 20.4219 218.643 21.3447 218.643 22.1854C218.643 26.7585 220.919 29.045 225.471 29.045ZM236.703 29.7832C237.933 24.2464 239.133 18.1969 240.302 11.6347L240.886 8.37411H241.47C244.875 13.3368 248.955 18.73 253.713 24.554C253.836 23.8978 254.01 22.9955 254.236 21.8471C255.118 16.8229 255.805 12.4652 256.297 8.77399C256.748 8.85602 257.076 8.89703 257.281 8.89703C257.507 8.89703 257.825 8.85602 258.235 8.77399C256.84 15.3772 255.518 22.5135 254.267 30.1831H253.867C252.534 28.0299 250.432 25.0974 247.561 21.3857L241.501 13.5418C241.132 15.3464 240.876 16.6896 240.732 17.5714C240.179 20.7089 239.533 24.7795 238.794 29.7832C238.425 29.6807 238.087 29.6294 237.779 29.6294C237.492 29.6294 237.133 29.6807 236.703 29.7832Z" fill="#2AC3C1"/>
<path d="M78.666 28.4605C76.9024 29.6089 74.5031 30.1831 71.4681 30.1831C68.5561 30.1831 66.3209 29.4756 64.7624 28.0606C63.2039 26.6457 62.4246 24.636 62.4246 22.0316C62.4246 21.1703 62.5066 20.2578 62.6707 19.294C63.2449 15.9924 64.7316 13.347 67.1309 11.3578C69.5507 9.36869 72.514 8.37411 76.0206 8.37411C78.4609 8.37411 80.5731 8.86627 82.3572 9.8506C81.8446 10.8964 81.5062 11.8808 81.3421 12.8036C80.3168 10.6093 78.4404 9.51224 75.713 9.51224C73.1497 9.51224 70.9965 10.3735 69.2534 12.0961C67.5308 13.7982 66.3927 16.2077 65.839 19.3247C65.6749 20.2681 65.5929 21.1601 65.5929 22.0009C65.5929 24.2156 66.1569 25.9382 67.2847 27.1686C68.4126 28.399 70.0019 29.0142 72.0526 29.0142C74.4108 29.0142 76.7999 28.1529 79.2197 26.4303L78.666 28.4605ZM75.809 29.7524C80.8332 21.8163 85.2524 14.6902 89.0666 8.37411H89.6511C91.2506 15.5515 92.9732 22.6879 94.8188 29.7832C94.2856 29.6807 93.7935 29.6294 93.3423 29.6294C92.8706 29.6294 92.3375 29.6807 91.7428 29.7832C91.3942 27.4659 90.9328 25.1384 90.3586 22.8006L90.051 21.5702C89.2102 21.5292 87.949 21.5087 86.2675 21.5087C84.5654 21.5087 83.294 21.5292 82.4532 21.5702C81.0997 23.7645 79.5617 26.5021 77.8392 29.7832C77.5111 29.6807 77.1829 29.6294 76.8548 29.6294C76.6293 29.6294 76.2806 29.6704 75.809 29.7524ZM83.1914 20.2168C83.3145 20.2168 83.6323 20.2168 84.145 20.2168C84.6577 20.2373 85.1191 20.2475 85.5292 20.2475C85.8368 20.2475 86.452 20.2373 87.3748 20.2168C88.2976 20.2168 89.0564 20.2168 89.6511 20.2168L89.3742 18.8633C89.2307 18.1661 88.718 16.0744 87.8362 12.5883L83.1914 20.2168ZM93.7459 29.7832C94.9763 24.2464 96.1759 18.1969 97.3448 11.6347L97.9293 8.37411H98.5137C101.918 13.3368 105.999 18.73 110.756 24.554C110.879 23.8978 111.054 22.9955 111.279 21.8471C112.161 16.8229 112.848 12.4652 113.34 8.77399C113.791 8.85602 114.119 8.89703 114.324 8.89703C114.55 8.89703 114.868 8.85602 115.278 8.77399C113.884 15.3772 112.561 22.5135 111.31 30.1831H110.91C109.577 28.0299 107.475 25.0974 104.604 21.3857L98.5445 13.5418C98.1753 15.3464 97.919 16.6896 97.7755 17.5714C97.2218 20.7089 96.5758 24.7795 95.8376 29.7832C95.4684 29.6807 95.1301 29.6294 94.8225 29.6294C94.5354 29.6294 94.1765 29.6807 93.7459 29.7832Z" fill="#2AC3C1"/>
<path d="M16.5422 29.7832C16.9934 27.8556 17.5163 25.2102 18.111 21.8471L18.5724 19.294C19.0235 16.7101 19.5772 13.2035 20.2334 8.77399C20.6436 8.85602 21.105 8.89703 21.6176 8.89703C22.1303 8.89703 22.6122 8.85602 23.0634 8.77399C22.7353 10.1274 22.3354 12.1371 21.8637 14.803L21.064 19.294C20.7358 21.0371 20.4077 22.7801 20.0796 24.5232C19.7105 26.5739 19.4747 28.3272 19.3721 29.7832C18.88 29.6807 18.4288 29.6294 18.0187 29.6294C17.588 29.6294 17.0959 29.6807 16.5422 29.7832ZM21.1599 29.7832C21.6931 27.671 22.2365 25.0666 22.7902 21.9701C23.549 17.5817 24.2359 13.183 24.8511 8.77399C25.979 8.83551 27.3735 8.86627 29.0345 8.86627C30.6751 8.86627 32.9411 8.83551 35.8325 8.77399C35.812 8.87653 35.771 9.04058 35.7095 9.26615C35.6685 9.49173 35.6377 9.66604 35.6172 9.78908C35.5967 9.91212 35.5762 10.0864 35.5557 10.312C35.5352 10.5171 35.5147 10.6709 35.4942 10.7734C34.1202 10.4658 31.6697 10.312 28.1425 10.312H27.4042C27.1582 11.3989 26.8608 12.9266 26.5122 14.8953L25.9585 17.9713H28.4193C30.2444 17.9713 31.9978 17.8995 33.6793 17.756C33.5153 18.3097 33.4127 18.9043 33.3717 19.5401C30.3777 19.3555 28.1322 19.2632 26.6352 19.2632H25.7432L24.5128 26.3381C24.3487 27.2199 24.1847 28.3682 24.0206 29.7832C23.5695 29.7012 23.0568 29.6602 22.4826 29.6602C21.9904 29.6602 21.5496 29.7012 21.1599 29.7832ZM32.5141 29.7832C33.1088 27.2609 33.8163 23.6824 34.6366 19.0479C35.3748 14.8645 35.908 11.4399 36.2361 8.77399C37.405 8.83551 38.6559 8.86627 39.9889 8.86627C41.3628 8.86627 43.7108 8.83551 47.0329 8.77399L46.7253 10.5581C44.4081 10.353 41.9985 10.2505 39.4967 10.2505H38.7892C38.3175 12.6908 37.9177 14.8543 37.5896 16.7409L37.3435 17.9713H37.8972C39.7838 17.9713 42.0293 17.8893 44.6336 17.7252C44.4491 18.3609 44.3465 18.9659 44.326 19.5401C43.4442 19.376 41.5166 19.294 38.5431 19.294H37.0974L36.8206 20.7705C36.677 21.6728 36.2566 24.1746 35.5594 28.276H36.3284C38.1945 28.276 40.6758 28.1632 43.7724 27.9376L43.4648 29.7832C42.3574 29.7422 40.6041 29.7217 38.2048 29.7217C35.7234 29.7217 33.8266 29.7422 32.5141 29.7832Z" fill="#2AC3C1"/>
<path d="M113.886 30.5449C114.641 27.3412 115.54 22.796 116.582 16.9094C117.52 11.5958 118.197 7.24597 118.613 3.85988C120.098 3.93802 121.687 3.97709 123.38 3.97709C125.125 3.97709 128.108 3.93802 132.327 3.85988L131.936 6.12596C128.993 5.86549 125.933 5.73525 122.755 5.73525H121.856C121.257 8.83483 120.749 11.5828 120.333 13.9791L120.02 15.5419H120.723C123.12 15.5419 125.972 15.4377 129.28 15.2293C129.045 16.0368 128.915 16.8052 128.889 17.5345C127.769 17.3261 125.321 17.2219 121.544 17.2219H119.707L119.356 19.0973C119.174 20.2434 118.64 23.4211 117.754 28.6305H118.731C121.101 28.6305 124.253 28.4872 128.186 28.2007L127.795 30.5449C126.388 30.4928 124.161 30.4668 121.114 30.4668C117.962 30.4668 115.553 30.4928 113.886 30.5449Z" fill="#2AC3C1"/>
<path d="M45.207 28.9821C45.9102 27.6016 46.4442 26.2211 46.8089 24.8407C47.1214 26.3253 47.7726 27.4714 48.7624 28.2788C49.7522 29.0863 50.9764 29.49 52.435 29.49C54.102 29.49 55.5346 28.9821 56.7327 27.9663C57.9569 26.9244 58.7253 25.5179 59.0379 23.7467C59.09 23.356 59.116 22.9913 59.116 22.6527C59.116 21.0639 58.0611 19.7876 55.9513 18.8238L53.021 17.4954C50.234 16.2452 48.8405 14.5 48.8405 12.26C48.8405 11.8432 48.8796 11.4005 48.9577 10.9316C49.3484 8.71762 50.4294 6.90736 52.2006 5.50083C53.9978 4.0943 56.1076 3.39103 58.53 3.39103C60.6137 3.39103 62.5151 3.8729 64.2342 4.83663C63.6872 5.64409 63.1403 6.64689 62.5933 7.84505C61.5775 5.83944 59.9625 4.83663 57.7486 4.83663C56.2899 4.83663 55.0657 5.27943 54.0759 6.16503C53.0862 7.02457 52.461 8.19668 52.2006 9.68136C52.1485 10.02 52.1224 10.3325 52.1224 10.619C52.1224 12.1819 53.1903 13.4582 55.3262 14.4479L58.2174 15.8154C60.9523 17.0917 62.3198 18.8499 62.3198 21.0899C62.3198 21.5587 62.2807 22.0667 62.2026 22.6136C61.7598 25.1402 60.5486 27.1849 58.569 28.7477C56.6155 30.2845 54.2322 31.0528 51.4192 31.0528C48.8145 31.0528 46.7437 30.3626 45.207 28.9821Z" fill="#2AC3C1"/>
<path d="M1.58034 30.5449C2.70036 25.2314 3.57293 20.7904 4.19805 17.2219C4.90132 13.2368 5.59156 8.78274 6.26878 3.85988C6.81577 3.96406 7.42787 4.01616 8.10509 4.01616C8.78231 4.01616 9.38139 3.96406 9.90232 3.85988C8.52184 10.2935 7.58415 14.9038 7.08926 17.6908C6.59437 20.4778 6.03436 24.1504 5.40923 28.7086C5.93017 28.7347 6.81577 28.7477 8.06602 28.7477C11.5303 28.7477 14.2261 28.5393 16.1536 28.1226C16.0754 28.383 15.9843 28.7868 15.8801 29.3337C15.854 29.5942 15.8019 29.9979 15.7238 30.5449L6.65949 30.4277C4.8362 30.4277 3.14315 30.4668 1.58034 30.5449Z" fill="#2AC3C1"/>
</svg>
