<svg width="183" height="28" viewBox="0 0 183 28" fill="none" xmlns="http://www.w3.org/2000/svg">
<path d="M90.7382 20.4863C91.0687 18.9488 91.5285 16.4987 92.1177 13.1362C92.7212 9.68753 93.1235 7.23032 93.3247 5.76461C93.957 5.79335 94.4958 5.80772 94.9413 5.80772C95.2287 5.80772 95.8394 5.79335 96.7734 5.76461C97.7075 5.72151 98.4978 5.69995 99.1444 5.69995C101.314 5.69995 102.852 6.04482 103.757 6.73457C105.007 7.68296 105.632 9.10556 105.632 11.0024C105.632 11.534 105.582 12.0944 105.481 12.6836C105.022 15.227 103.951 17.1741 102.27 18.5249C100.603 19.8612 98.3756 20.5294 95.5879 20.5294C95.2574 20.5294 94.7401 20.5151 94.036 20.4863C93.3463 20.4576 92.8218 20.4432 92.4625 20.4432C92.4913 20.4432 91.9165 20.4576 90.7382 20.4863ZM92.829 19.5595C93.7342 19.6313 94.4815 19.6673 95.0706 19.6673C99.7839 19.6673 102.528 17.4759 103.304 13.0931C103.448 12.2741 103.52 11.5484 103.52 10.9161C103.52 9.39295 103.103 8.28649 102.27 7.59675C101.436 6.907 100.136 6.56213 98.3685 6.56213C97.2045 6.56213 96.1124 6.59805 95.0922 6.6699C94.1725 11.2682 93.4181 15.5647 92.829 19.5595ZM107.014 5.76461C107.302 5.82209 107.618 5.85083 107.963 5.85083C108.351 5.85083 108.688 5.81491 108.976 5.74306L107.51 13.5889C107.323 14.6954 107.23 15.5575 107.23 16.1754C107.23 17.0376 107.41 17.7489 107.769 18.3093C108.401 19.2865 109.493 19.775 111.045 19.775C112.611 19.775 113.883 19.2721 114.86 18.2662C115.421 17.6914 115.859 16.9011 116.175 15.8952C116.405 15.2198 116.656 14.0918 116.929 12.5112C117.361 10.0827 117.727 7.83385 118.029 5.76461C118.23 5.82209 118.453 5.85083 118.697 5.85083C118.956 5.85083 119.193 5.82209 119.408 5.76461C119.02 7.6183 118.754 8.92594 118.611 9.68753L118.524 10.2479C118.108 12.5902 117.777 14.214 117.533 15.1193C117.174 16.4844 116.743 17.5118 116.24 18.2016C114.946 19.9115 113.042 20.7665 110.528 20.7665C108.732 20.7665 107.41 20.4073 106.562 19.6888C105.728 18.9703 105.312 17.8567 105.312 16.3479C105.312 15.73 105.383 15.0402 105.527 14.2786C105.886 12.3962 106.382 9.5582 107.014 5.76461ZM129.347 19.5595C128.112 20.3642 126.43 20.7665 124.304 20.7665C122.263 20.7665 120.697 20.2708 119.605 19.2793C118.513 18.2878 117.967 16.8795 117.967 15.0546C117.967 14.4511 118.024 13.8116 118.139 13.1362C118.541 10.8227 119.583 8.96905 121.264 7.57519C122.96 6.18133 125.037 5.48441 127.494 5.48441C129.204 5.48441 130.684 5.82928 131.934 6.51902C131.575 7.25187 131.338 7.94162 131.223 8.58825C130.504 7.0507 129.189 6.28192 127.278 6.28192C125.482 6.28192 123.973 6.88545 122.752 8.0925C121.545 9.28518 120.747 10.9736 120.359 13.1578C120.244 13.8188 120.187 14.4439 120.187 15.033C120.187 16.585 120.582 17.792 121.372 18.6542C122.163 19.5164 123.276 19.9475 124.713 19.9475C126.366 19.9475 128.04 19.3439 129.735 18.1369L129.347 19.5595ZM127.345 20.4648C130.866 14.9037 133.963 9.91026 136.635 5.48441H137.045C138.166 10.5138 139.373 15.5144 140.666 20.4863C140.293 20.4145 139.948 20.3786 139.632 20.3786C139.301 20.3786 138.927 20.4145 138.511 20.4863C138.266 18.8626 137.943 17.2316 137.541 15.5935L137.325 14.7313C136.736 14.7025 135.852 14.6882 134.674 14.6882C133.481 14.6882 132.59 14.7025 132.001 14.7313C131.053 16.2688 129.975 18.1872 128.768 20.4863C128.538 20.4145 128.308 20.3786 128.078 20.3786C127.92 20.3786 127.676 20.4073 127.345 20.4648ZM132.519 13.7829C132.605 13.7829 132.827 13.7829 133.187 13.7829C133.546 13.7973 133.869 13.8044 134.157 13.8044C134.372 13.8044 134.803 13.7973 135.45 13.7829C136.097 13.7829 136.628 13.7829 137.045 13.7829L136.851 12.8345C136.75 12.3459 136.391 10.8802 135.773 8.43737L132.519 13.7829ZM142.35 20.4863C143.112 16.5347 143.737 13.165 144.225 10.3773L144.872 6.77768H144.29C142.566 6.77768 141.229 6.86389 140.281 7.03633C140.396 6.63398 140.468 6.21007 140.496 5.76461C142.134 5.80772 143.852 5.82928 145.648 5.82928C147.458 5.82928 149.37 5.80772 151.381 5.76461C151.223 6.16697 151.151 6.59087 151.166 7.03633C150.232 6.86389 148.974 6.77768 147.394 6.77768H146.769C146.481 7.97036 146.158 9.57976 145.799 11.6059C145.339 14.2212 144.857 17.1813 144.355 20.4863C144.153 20.4576 143.83 20.4432 143.385 20.4432C142.939 20.4432 142.594 20.4576 142.35 20.4863ZM148.56 20.4863C148.876 19.1356 149.243 17.2819 149.66 14.9253L149.983 13.1362C150.299 11.3257 150.687 8.86846 151.147 5.76461C151.434 5.82209 151.757 5.85083 152.117 5.85083C152.476 5.85083 152.814 5.82209 153.13 5.76461C152.9 6.71301 152.62 8.12124 152.289 9.98929L151.729 13.1362C151.499 14.3577 151.269 15.5791 151.039 16.8005C150.78 18.2375 150.615 19.4661 150.543 20.4863C150.198 20.4145 149.882 20.3786 149.595 20.3786C149.293 20.3786 148.948 20.4145 148.56 20.4863ZM158.629 20.7881C156.488 20.7881 154.828 20.2636 153.65 19.2146C152.471 18.1656 151.882 16.7143 151.882 14.8606C151.882 14.3146 151.933 13.747 152.033 13.1578C152.435 10.8299 153.484 8.97623 155.18 7.59675C156.876 6.20289 158.931 5.50596 161.345 5.50596C163.471 5.50596 165.124 6.03764 166.302 7.10099C167.48 8.14998 168.07 9.6085 168.07 11.4766C168.07 12.0082 168.019 12.5686 167.919 13.1578C167.516 15.4426 166.467 17.2891 164.772 18.6973C163.076 20.0912 161.028 20.7881 158.629 20.7881ZM158.78 19.969C160.633 19.969 162.164 19.3799 163.371 18.2016C164.592 17.0232 165.397 15.3348 165.785 13.1362C165.914 12.4034 165.979 11.7208 165.979 11.0886C165.979 7.89851 164.384 6.30348 161.194 6.30348C159.34 6.30348 157.803 6.907 156.581 8.11405C155.374 9.30674 154.569 11.0095 154.167 13.2225C154.052 13.9266 153.995 14.5732 153.995 15.1624C153.995 18.3668 155.59 19.969 158.78 19.969ZM166.65 20.4863C167.512 16.6065 168.352 12.3675 169.171 7.76918L169.581 5.48441H169.991C172.376 8.96186 175.235 12.7411 178.569 16.8221C178.655 16.3622 178.778 15.73 178.936 14.9253C179.554 11.4047 180.035 8.35115 180.38 5.76461C180.696 5.82209 180.926 5.85083 181.07 5.85083C181.228 5.85083 181.45 5.82209 181.738 5.76461C180.761 10.3916 179.834 15.3923 178.957 20.7665H178.677C177.743 19.2577 176.27 17.2029 174.258 14.602L170.012 9.10556C169.753 10.3701 169.574 11.3113 169.473 11.9292C169.085 14.1278 168.633 16.9801 168.115 20.4863C167.857 20.4145 167.62 20.3786 167.404 20.3786C167.203 20.3786 166.951 20.4145 166.65 20.4863Z" fill="white"/>
<path d="M55.8881 19.5595C54.6523 20.3642 52.9711 20.7665 50.8443 20.7665C48.8039 20.7665 47.2376 20.2708 46.1455 19.2793C45.0534 18.2878 44.5073 16.8795 44.5073 15.0546C44.5073 14.4511 44.5648 13.8116 44.6798 13.1362C45.0821 10.8227 46.1239 8.96905 47.8052 7.57519C49.5008 6.18133 51.5772 5.48441 54.0344 5.48441C55.7444 5.48441 57.2245 5.82928 58.4746 6.51902C58.1154 7.25187 57.8783 7.94162 57.7633 8.58825C57.0449 7.0507 55.73 6.28192 53.8189 6.28192C52.0227 6.28192 50.5138 6.88545 49.2924 8.0925C48.0854 9.28518 47.2879 10.9736 46.8999 13.1578C46.7849 13.8188 46.7274 14.4439 46.7274 15.033C46.7274 16.585 47.1226 17.792 47.9129 18.6542C48.7033 19.5164 49.8169 19.9475 51.2539 19.9475C52.9064 19.9475 54.5805 19.3439 56.2761 18.1369L55.8881 19.5595ZM53.8861 20.4648C57.4067 14.9037 60.5033 9.91026 63.1761 5.48441H63.5856C64.7065 10.5138 65.9135 15.5144 67.2068 20.4863C66.8332 20.4145 66.4883 20.3786 66.1722 20.3786C65.8417 20.3786 65.4681 20.4145 65.0513 20.4863C64.8071 18.8626 64.4837 17.2316 64.0814 15.5935L63.8658 14.7313C63.2767 14.7025 62.393 14.6882 61.2146 14.6882C60.022 14.6882 59.131 14.7025 58.5419 14.7313C57.5935 16.2688 56.5158 18.1872 55.3087 20.4863C55.0788 20.4145 54.8489 20.3786 54.619 20.3786C54.4609 20.3786 54.2166 20.4073 53.8861 20.4648ZM59.0592 13.7829C59.1454 13.7829 59.3681 13.7829 59.7274 13.7829C60.0866 13.7973 60.4099 13.8044 60.6973 13.8044C60.9129 13.8044 61.344 13.7973 61.9906 13.7829C62.6372 13.7829 63.1689 13.7829 63.5856 13.7829L63.3916 12.8345C63.2911 12.3459 62.9318 10.8802 62.3139 8.43737L59.0592 13.7829ZM66.455 20.4863C67.3171 16.6065 68.1578 12.3675 68.9768 7.76918L69.3864 5.48441H69.7959C72.1813 8.96186 75.0408 12.7411 78.3746 16.8221C78.4608 16.3622 78.583 15.73 78.741 14.9253C79.3589 11.4047 79.8403 8.35115 80.1852 5.76461C80.5013 5.82209 80.7312 5.85083 80.8749 5.85083C81.033 5.85083 81.2557 5.82209 81.5431 5.76461C80.566 10.3916 79.6391 15.3923 78.7626 20.7665H78.4824C77.5483 19.2577 76.0755 17.2029 74.0637 14.602L69.8175 9.10556C69.5588 10.3701 69.3792 11.3113 69.2786 11.9292C68.8906 14.1278 68.438 16.9801 67.9207 20.4863C67.662 20.4145 67.4249 20.3786 67.2094 20.3786C67.0082 20.3786 66.7567 20.4145 66.455 20.4863Z" fill="white"/>
<path d="M11.9132 20.4863C12.2294 19.1356 12.5958 17.2819 13.0125 14.9253L13.3358 13.1362C13.652 11.3257 14.0399 8.86846 14.4998 5.76461C14.7872 5.82209 15.1105 5.85083 15.4697 5.85083C15.829 5.85083 16.1666 5.82209 16.4828 5.76461C16.2529 6.71301 15.9727 8.12124 15.6422 9.98929L15.0817 13.1362C14.8518 14.3577 14.6219 15.5791 14.392 16.8005C14.1333 18.2375 13.9681 19.4661 13.8962 20.4863C13.5514 20.4145 13.2352 20.3786 12.9478 20.3786C12.6461 20.3786 12.3012 20.4145 11.9132 20.4863ZM15.149 20.4863C15.5226 19.0063 15.9034 17.1813 16.2914 15.0115C16.823 11.9364 17.3044 8.85409 17.7355 5.76461C18.5259 5.80772 19.503 5.82928 20.6669 5.82928C21.8165 5.82928 23.4044 5.80772 25.4305 5.76461C25.4161 5.83646 25.3874 5.95142 25.3443 6.10949C25.3155 6.26755 25.294 6.38969 25.2796 6.47591C25.2652 6.56213 25.2509 6.68427 25.2365 6.84234C25.2221 6.98604 25.2077 7.09381 25.1934 7.16566C24.2306 6.95011 22.5134 6.84234 20.0419 6.84234H19.5245C19.3521 7.60393 19.1437 8.67447 18.8995 10.054L18.5115 12.2094H20.2358C21.5147 12.2094 22.7433 12.1591 23.9217 12.0585C23.8067 12.4465 23.7349 12.8632 23.7061 13.3087C21.6081 13.1794 20.0347 13.1147 18.9857 13.1147H18.3606L17.4984 18.0722C17.3835 18.6901 17.2685 19.4948 17.1536 20.4863C16.8374 20.4288 16.4782 20.4001 16.0758 20.4001C15.731 20.4001 15.422 20.4288 15.149 20.4863ZM23.1052 20.4863C23.5219 18.7189 24.0176 16.2114 24.5924 12.9638C25.1097 10.0324 25.4834 7.63267 25.7133 5.76461C26.5323 5.80772 27.4089 5.82928 28.3429 5.82928C29.3057 5.82928 30.951 5.80772 33.2789 5.76461L33.0633 7.01478C31.4396 6.87108 29.7511 6.79923 27.998 6.79923H27.5023C27.1718 8.50922 26.8916 10.0252 26.6617 11.3472L26.4892 12.2094H26.8772C28.1992 12.2094 29.7727 12.1519 31.5976 12.037C31.4683 12.4824 31.3965 12.9063 31.3821 13.3087C30.7642 13.1937 29.4135 13.1362 27.3299 13.1362H26.3168L26.1228 14.1709C26.0222 14.8031 25.7276 16.5562 25.2391 19.4302H25.7779C27.0856 19.4302 28.8243 19.3511 30.9941 19.1931L30.7786 20.4863C30.0026 20.4576 28.774 20.4432 27.0928 20.4432C25.354 20.4432 24.0248 20.4576 23.1052 20.4863Z" fill="white"/>
<path d="M80.328 21C80.8573 18.755 81.487 15.5701 82.2171 11.4452C82.8742 7.72185 83.3487 4.67381 83.6407 2.30108C84.6811 2.35583 85.7944 2.38321 86.9808 2.38321C88.2037 2.38321 90.2935 2.35583 93.2503 2.30108L92.9765 3.88898C90.9141 3.70646 88.7695 3.6152 86.5428 3.6152H85.9131C85.4933 5.78716 85.1374 7.71272 84.8454 9.39188L84.6263 10.487H85.1191C86.7983 10.487 88.7969 10.414 91.1148 10.268C90.9506 10.8338 90.8593 11.3722 90.8411 11.8832C90.0562 11.7372 88.3406 11.6642 85.6941 11.6642H84.4073L84.1609 12.9784C84.0332 13.7814 83.659 16.0081 83.0384 19.6585H83.7229C85.3838 19.6585 87.5922 19.5581 90.3483 19.3573L90.0745 21C89.0889 20.9635 87.5284 20.9452 85.3929 20.9452C83.1844 20.9452 81.4962 20.9635 80.328 21Z" fill="white"/>
<path d="M32.2052 19.9049C32.698 18.9376 33.0722 17.9702 33.3277 17.0029C33.5467 18.0432 34.003 18.8463 34.6966 19.4121C35.3901 19.9779 36.248 20.2608 37.2701 20.2608C38.4382 20.2608 39.442 19.9049 40.2816 19.1931C41.1394 18.463 41.6779 17.4774 41.8969 16.2363C41.9334 15.9625 41.9516 15.707 41.9516 15.4697C41.9516 14.3564 41.2124 13.462 39.734 12.7867L37.6807 11.8559C35.7278 10.9798 34.7513 9.75692 34.7513 8.18727C34.7513 7.89524 34.7787 7.58496 34.8334 7.25643C35.1072 5.70503 35.8647 4.43653 37.1058 3.45094C38.3652 2.46534 39.8436 1.97255 41.541 1.97255C43.0011 1.97255 44.3335 2.3102 45.5381 2.98552C45.1548 3.55132 44.7715 4.25402 44.3882 5.0936C43.6764 3.68821 42.5448 2.98552 40.9934 2.98552C39.9713 2.98552 39.1135 3.2958 38.4199 3.91636C37.7263 4.51867 37.2883 5.33999 37.1058 6.38034C37.0693 6.61762 37.051 6.83664 37.051 7.03741C37.051 8.13251 37.7994 9.02685 39.296 9.72042L41.3219 10.6786C43.2384 11.573 44.1966 12.805 44.1966 14.3746C44.1966 14.7031 44.1692 15.0591 44.1145 15.4423C43.8042 17.2128 42.9555 18.6455 41.5683 19.7406C40.1995 20.8175 38.5294 21.3559 36.5582 21.3559C34.7331 21.3559 33.282 20.8722 32.2052 19.9049Z" fill="white"/>
<path d="M1.63332 21C2.41815 17.2766 3.02958 14.1647 3.46762 11.6642C3.96042 8.87171 4.44409 5.75066 4.91864 2.30108C5.30193 2.37408 5.73084 2.41059 6.20539 2.41059C6.67993 2.41059 7.09972 2.37408 7.46476 2.30108C6.49742 6.80926 5.84035 10.0398 5.49357 11.9928C5.14679 13.9457 4.75437 16.5192 4.31633 19.7133C4.68137 19.7315 5.30193 19.7406 6.17801 19.7406C8.60549 19.7406 10.4946 19.5946 11.8452 19.3026C11.7904 19.4851 11.7265 19.768 11.6535 20.1513C11.6353 20.3338 11.5988 20.6167 11.544 21L5.19242 20.9179C3.91479 20.9179 2.72843 20.9452 1.63332 21Z" fill="white"/>
</svg>
